# xmcd
#
# Track frame offsets:
#	150
#	16444
#	33468
#	46643
#	62680
#	78435
#	95672
#	113944
#	140727
#	154108
#	174190
#	197396
#	213113
#	227640
#	242382
#	256126
#	269242
#	282285
#	299746
#	312382
#
# Disc length: 4474 seconds
#
# Revision: 0
# Processed by: cddbd v1.5.2PL0 Copyright (c) Steve Scherf et al.
# Submitted via: EasyCDDAExtractor 16.0.6.1
#
DISCID=1c117814
DTITLE=Τερλέγκας Βασίλης - Σε δημοτικά τραγούδια-Τερλέγκας Β.
DYEAR=2009
DGENRE=Παραδοσιακή
TTITLE0=Διαμάντω
TTITLE1=Τα κρίνα και τα γιασεμιά
TTITLE2=Ήμουν νιός κι εγώ
TTITLE3=Βαθιά σπηλιά μέσ' στα βουνά
TTITLE4=Ζωή γεμάτη βάσανα
TTITLE5=Αγιάτρευτο μαρτύριο
TTITLE6=Δεν θέλω μαύρα να ντυθείς
TTITLE7=Σήκω Δημητρώ
TTITLE8=Διαμάντι και ρουμπίνι
TTITLE9=Ρούσα παπαδιά
TTITLE10=Στον κατειφένιο σου οντά
TTITLE11=Κιτρολεμονιά
TTITLE12=Δεν άντεξα στον πειρασμό
TTITLE13=Πατέρα μάς μεγάλωσες
TTITLE14=Παλαμιώτης
TTITLE15=Ναυτάκια ταξιδιάρικα
TTITLE16=Μιά λυγερή
TTITLE17=Κυρα Αναγνώσταινα
TTITLE18=Σιγά την άμαξα
TTITLE19=Μήλο μου και μανταρίνι
EXTD=
EXTT0=
EXTT1=
EXTT2=
EXTT3=
EXTT4=
EXTT5=
EXTT6=
EXTT7=
EXTT8=
EXTT9=
EXTT10=
EXTT11=
EXTT12=
EXTT13=
EXTT14=
EXTT15=
EXTT16=
EXTT17=
EXTT18=
EXTT19=
PLAYORDER=
